<?xml version="1.0" encoding="UTF-8"?>
<svg version="1.1" xmlns="http://www.w3.org/2000/svg" width="434" height="321">
<path d="M0 0 C143.22 0 286.44 0 434 0 C434 105.93 434 211.86 434 321 C290.78 321 147.56 321 0 321 C0 215.07 0 109.14 0 0 Z " fill="#FFFDFD" transform="translate(0,0)"/>
<path d="M0 0 C8.5920879 6.93359024 15.1367321 14.8209354 17.39648438 25.796875 C18.49734557 37.71528957 18.71101142 49.83808749 13.39648438 60.796875 C13.07035156 61.50585938 12.74421875 62.21484375 12.40820312 62.9453125 C10.88727801 65.72878164 8.68287626 67.61682692 6.39648438 69.796875 C5.63335937 70.621875 4.87023437 71.446875 4.08398438 72.296875 C-0.19809444 76.28020413 -4.80315168 79.60838172 -10.60351562 80.796875 C-10.60351562 81.456875 -10.60351562 82.116875 -10.60351562 82.796875 C-18.69749556 85.43113619 -30.93636877 85.02144421 -38.81054688 81.77734375 C-42.71076206 79.64454634 -45.97892483 77.45510233 -47.59960938 73.15234375 C-49.33863055 70.60469066 -49.33863055 70.60469066 -51.80957031 70.39453125 C-54.65165721 70.30341881 -57.45014201 70.36248933 -60.29101562 70.484375 C-61.27908203 70.50693359 -62.26714844 70.52949219 -63.28515625 70.55273438 C-65.72613122 70.61169512 -68.1640643 70.69392452 -70.60351562 70.796875 C-63.48249534 78.10501698 -56.40397003 85.23672527 -48.39257812 91.58203125 C-43.01709575 95.85079667 -37.82624126 100.34359917 -32.60351562 104.796875 C-31.87261719 105.41304688 -31.14171875 106.02921875 -30.38867188 106.6640625 C-27.39006366 109.22728997 -24.53275706 111.84406155 -21.81445312 114.703125 C-21.0799292 115.46786133 -21.0799292 115.46786133 -20.33056641 116.24804688 C-19.3614263 117.26428239 -18.40355308 118.29140856 -17.45849609 119.33007812 C-15.99506087 120.92165028 -15.99506087 120.92165028 -13.60351562 122.796875 C-11.47607307 122.84184677 -11.47607307 122.84184677 -9.60351562 121.796875 C1.01118786 117.4287774 12.42701681 117.53023208 23.39648438 120.796875 C24.46253906 121.07789063 25.52859375 121.35890625 26.62695312 121.6484375 C30.80957018 122.92272705 34.71699269 124.52841158 38.70898438 126.296875 C39.42376953 126.60496094 40.13855469 126.91304687 40.875 127.23046875 C46.14447545 129.54486607 46.14447545 129.54486607 48.39648438 131.796875 C50.46522472 132.4393985 50.46522472 132.4393985 52.39648438 132.796875 C52.72519531 132.1678125 53.05390625 131.53875 53.39257812 130.890625 C57.83513394 122.89643242 63.86242785 115.02063003 72.97070312 112.19140625 C85.79988922 110.10485585 97.21821341 111.50663242 107.93164062 118.82421875 C112.53686511 122.50985799 114.90690986 125.78537459 115.86132812 131.65625 C116.23476225 138.83347165 114.96680633 144.20143411 110.39648438 149.796875 C106.27782197 154.17498071 102.49335215 157.20009649 96.33398438 157.484375 C90.51034402 157.05736861 85.52874237 154.929133 81.39648438 150.796875 C81.39648438 149.806875 81.39648438 148.816875 81.39648438 147.796875 C78.42648437 147.466875 75.45648438 147.136875 72.39648438 146.796875 C77.61847877 153.43585835 77.61847877 153.43585835 83.09570312 159.86328125 C89.692488 167.33031472 94.90000088 174.87152431 99.39648438 183.796875 C99.79480469 184.54324219 100.193125 185.28960937 100.60351562 186.05859375 C101.85287829 190.37289536 101.60350511 194.64555412 101.52148438 199.109375 C101.51246094 200.04072266 101.5034375 200.97207031 101.49414062 201.93164062 C101.470667 204.2203186 101.43783166 206.50846172 101.39648438 208.796875 C100.73648437 208.796875 100.07648438 208.796875 99.39648438 208.796875 C98.73648437 211.766875 98.07648438 214.736875 97.39648438 217.796875 C96.73648437 217.796875 96.07648438 217.796875 95.39648438 217.796875 C95.13222656 218.38726562 94.86796875 218.97765625 94.59570312 219.5859375 C90.97262448 226.26561995 84.4945264 229.50432223 77.70898438 232.234375 C76.74665894 232.62278564 76.74665894 232.62278564 75.76489258 233.01904297 C72.19596813 234.36949691 69.21261479 235.09603628 65.39648438 234.796875 C65.19023437 235.621875 64.98398437 236.446875 64.77148438 237.296875 C63.05741395 241.65996335 60.72308227 245.46181248 57.39648438 248.796875 C56.40648437 248.796875 55.41648437 248.796875 54.39648438 248.796875 C54.99711728 245.69132988 55.97394034 243.73256449 57.89648438 241.234375 C59.63296145 238.96786858 60.47139202 237.57215207 61.39648438 234.796875 C60.65785156 234.82007813 59.91921875 234.84328125 59.15820312 234.8671875 C47.05912615 235.08241886 35.03023783 234.14265156 25.87695312 225.38671875 C23.62478078 222.91624214 21.47675174 220.41316218 19.39648438 217.796875 C18.87957031 217.17941406 18.36265625 216.56195313 17.83007812 215.92578125 C13.92240344 210.1228311 12.88809723 205.21424749 13.02148438 198.359375 C13.03163574 197.6080127 13.04178711 196.85665039 13.05224609 196.08251953 C13.30544414 187.06749136 15.96963231 181.20667971 22.39648438 174.796875 C28.44573059 169.31474561 35.93285486 169.26602826 43.71289062 169.5 C53.99414735 170.32860606 60.47678021 176.51476408 67.39648438 183.796875 C69.2882343 186.16780169 70.16808346 187.93060621 71.39648438 190.796875 C71.69039063 191.47492188 71.98429687 192.15296875 72.28710938 192.8515625 C75.27890936 200.92942246 74.66192187 209.32253713 74.39648438 217.796875 C79.08302589 208.83131731 79.63366327 200.6850186 77.20898438 190.796875 C74.84948984 183.64145136 70.66607678 177.82808348 66.25708008 171.77148438 C56.39648438 158.1913514 56.39648438 158.1913514 56.39648438 152.796875 C55.73648437 152.796875 55.07648438 152.796875 54.39648438 152.796875 C53.39648438 149.796875 53.39648438 149.796875 53.53710938 147.34375 C53.66290871 144.12688128 53.48347525 141.84044945 52.39648438 138.796875 C48.52768997 135.49828326 44.09501089 133.62899721 39.39648438 131.796875 C38.46956787 131.42973389 38.46956787 131.42973389 37.52392578 131.05517578 C33.52315846 129.49797831 29.48819001 128.0943636 25.39648438 126.796875 C24.29949219 126.42691406 23.2025 126.05695313 22.07226562 125.67578125 C17.61534385 124.61009857 13.5211256 124.50339153 8.95898438 124.546875 C8.15138672 124.53914062 7.34378906 124.53140625 6.51171875 124.5234375 C1.1546722 124.54070437 -3.45694081 125.3078545 -8.60351562 126.796875 C-6.51694094 131.34424701 -3.64003497 135.41977797 -0.88085938 139.57617188 C1.29667873 142.90715838 2.9905077 146.05411302 4.39648438 149.796875 C5.05648438 150.786875 5.71648437 151.776875 6.39648438 152.796875 C7.14210527 155.50361952 7.82743469 158.18916191 8.45898438 160.921875 C9.21189694 165.74363231 9.21189694 165.74363231 11.39648438 169.796875 C11.65338576 174.29070632 11.58172972 178.79659024 11.58398438 183.296875 C11.59623047 184.55242187 11.60847656 185.80796875 11.62109375 187.1015625 C11.63471366 195.76382409 11.19788569 203.64708788 7.39648438 211.546875 C6.33969501 213.77604006 5.33488224 215.96003044 4.46289062 218.26953125 C-3.34200428 236.76684628 -21.79059757 249.18198707 -39.60351562 256.796875 C-41.92280763 257.57431558 -44.23300356 258.18054186 -46.60351562 258.796875 C-49.7150767 259.83811354 -51.97471652 260.63082669 -53.58447266 263.6159668 C-54.40632966 265.90668012 -55.09042266 268.19839085 -55.72851562 270.546875 C-57.44055398 276.51455154 -59.37423977 281.48005471 -62.60351562 286.796875 C-63.36392135 289.06673394 -63.36392135 289.06673394 -63.60351562 290.796875 C-64.26351562 290.796875 -64.92351562 290.796875 -65.60351562 290.796875 C-65.60351562 291.786875 -65.60351562 292.776875 -65.60351562 293.796875 C-67.91351563 293.796875 -70.22351563 293.796875 -72.60351562 293.796875 C-72.94340982 288.92505816 -72.0658538 286.89695438 -69.60351562 282.796875 C-68.48103876 280.14602403 -67.51204737 277.44382675 -66.54101562 274.734375 C-65.06527684 270.65657791 -63.59530125 266.65625945 -61.60351562 262.796875 C-62.29501709 262.93762451 -62.98651855 263.07837402 -63.69897461 263.22338867 C-72.06290575 264.78701723 -80.16937685 265.14354027 -88.66601562 265.109375 C-89.67808578 265.1086348 -89.67808578 265.1086348 -90.71060181 265.10787964 C-103.267077 265.07984641 -115.43893027 264.03447782 -127.60351562 260.796875 C-127.60351562 260.136875 -127.60351562 259.476875 -127.60351562 258.796875 C-128.42851562 258.879375 -129.25351563 258.961875 -130.10351562 259.046875 C-141.86169964 258.20700471 -153.95316773 246.95686212 -161.59570312 238.625 C-169.07356229 229.72140115 -175.52602551 219.65807984 -178.03320312 208.19921875 C-178.53459436 205.76522513 -178.53459436 205.76522513 -179.61816406 203.49267578 C-183.34458567 193.29764422 -182.09380526 176.23340198 -177.93554688 166.359375 C-177.49597656 165.51375 -177.05640625 164.668125 -176.60351562 163.796875 C-175.80494141 162.25 -175.80494141 162.25 -174.99023438 160.671875 C-166.76450854 145.78896528 -154.64169705 135.43813958 -138.49804688 129.69140625 C-121.71932719 125.83751778 -102.86331899 128.43962412 -88.08398438 137.171875 C-84.04495878 139.81791382 -80.28666381 142.67643001 -76.60351562 145.796875 C-75.77851563 146.4878125 -74.95351562 147.17875 -74.10351562 147.890625 C-59.56720492 160.47694281 -46.65262397 178.97648815 -44.72851562 198.671875 C-44.64049875 201.05440083 -44.60506732 203.41398835 -44.60351562 205.796875 C-44.59658691 206.81894043 -44.5896582 207.84100586 -44.58251953 208.89404297 C-44.53448872 216.52880699 -44.54795033 224.16220393 -44.60351562 231.796875 C-41.62990224 225.63724728 -39.07927163 219.91353302 -37.85351562 213.171875 C-36.67818229 206.87154167 -36.67818229 206.87154167 -35.60351562 205.796875 C-35.44587157 204.01817774 -35.35250885 202.23369024 -35.28710938 200.44921875 C-35.24521484 199.36962891 -35.20332031 198.29003906 -35.16015625 197.17773438 C-35.12083984 196.04142578 -35.08152344 194.90511719 -35.04101562 193.734375 C-34.99783203 192.59419922 -34.95464844 191.45402344 -34.91015625 190.27929688 C-34.80368724 187.45195305 -34.70167355 184.62451762 -34.60351562 181.796875 C-35.26351562 181.796875 -35.92351562 181.796875 -36.60351562 181.796875 C-37.59351563 177.176875 -38.58351562 172.556875 -39.60351562 167.796875 C-40.26351562 167.796875 -40.92351562 167.796875 -41.60351562 167.796875 C-41.93351563 166.86875 -42.26351562 165.940625 -42.60351562 164.984375 C-47.13710858 154.55920041 -55.5893407 146.35711472 -63.2890625 138.20849609 C-64.88750731 136.49188987 -66.40576673 134.71626866 -67.91601562 132.921875 C-71.38562613 128.88962496 -75.19331155 125.21596036 -78.97851562 121.484375 C-96.68760475 103.95711737 -112.88082746 83.20863124 -115.60351562 57.796875 C-116.36535156 57.61511719 -117.1271875 57.43335937 -117.91210938 57.24609375 C-123.55141187 55.87322985 -129.06065641 54.37308211 -134.54492188 52.4765625 C-137.09155321 51.63573925 -139.6771092 51.00380148 -142.28662109 50.38989258 C-144.04339863 49.94023898 -145.78532809 49.43207529 -147.51806641 48.8972168 C-156.5472284 46.12596166 -165.43057009 44.59933036 -174.79101562 43.546875 C-175.51240723 43.4628241 -176.23379883 43.37877319 -176.97705078 43.29217529 C-188.21027383 41.99233269 -199.29682507 41.07068378 -210.60351562 41.796875 C-211.31813965 41.83554687 -212.03276367 41.87421875 -212.76904297 41.9140625 C-228.00082782 42.83781846 -241.59090617 47.07132428 -253.60351562 56.796875 C-254.85068359 57.74046875 -254.85068359 57.74046875 -256.12304688 58.703125 C-264.09754061 65.43435121 -269.94017602 75.48153968 -271.60351562 85.796875 C-273.21835786 105.41434258 -270.71118951 121.82115408 -258.60351562 137.796875 C-252.59573511 144.44407328 -252.59573511 144.44407328 -244.60351562 147.796875 C-244.60351562 148.456875 -244.60351562 149.116875 -244.60351562 149.796875 C-233.76258555 152.68778969 -220.34117094 153.83184863 -210.05664062 148.46875 C-206.76999848 146.3420992 -204.0131247 144.24061817 -201.35351562 141.359375 C-200.77601563 140.84375 -200.19851562 140.328125 -199.60351562 139.796875 C-196.85351563 140.046875 -196.85351563 140.046875 -194.60351562 140.796875 C-193.79101562 142.921875 -193.79101562 142.921875 -193.60351562 145.796875 C-197.72220843 152.81390719 -205.51751436 156.89486135 -212.97460938 159.68359375 C-224.75318252 162.56189325 -239.49772299 162.5902043 -250.04101562 156.35546875 C-261.83426033 148.60716316 -268.94413332 138.95492521 -275.60351562 126.796875 C-276.41175781 125.42595703 -276.41175781 125.42595703 -277.23632812 124.02734375 C-282.69451622 111.13042503 -283.16691612 91.2025949 -278.97851562 77.921875 C-278.2402161 76.18980898 -277.44979549 74.47882306 -276.60351562 72.796875 C-276.20261719 71.89710937 -275.80171875 70.99734375 -275.38867188 70.0703125 C-267.53621974 53.91019362 -253.14631851 43.03876137 -236.60351562 36.796875 C-205.53033167 27.22790692 -173.25491816 31.75436516 -142.60351562 40.796875 C-141.73227051 41.05291504 -140.86102539 41.30895508 -139.96337891 41.57275391 C-135.63426652 42.8506664 -131.31110121 44.14647719 -126.99414062 45.46484375 C-123.20915799 46.62026817 -119.41225889 47.72248352 -115.60351562 48.796875 C-115.70664063 47.58 -115.80976563 46.363125 -115.91601562 45.109375 C-115.87366615 31.62106833 -107.04995525 18.94012419 -97.97851562 9.609375 C-89.36432547 1.11346681 -79.27245561 -4.88060701 -67.60351562 -8.203125 C-66.59417969 -8.50089844 -65.58484375 -8.79867188 -64.54492188 -9.10546875 C-43.91090238 -14.3794172 -17.53742516 -13.15840913 0 0 Z " fill="#FF294E" transform="translate(290.603515625,16.203125)"/>
<path d="M0 0 C0.8971875 0.3815625 1.794375 0.763125 2.71875 1.15625 C4.83154658 2.06918679 6.92104841 3.01302298 9 4 C9 4.66 9 5.32 9 6 C10.08667969 6.36544922 10.08667969 6.36544922 11.1953125 6.73828125 C16.28784266 9.02921055 19.98545042 13.19342552 24 17 C24.64582031 17.59296875 25.29164063 18.1859375 25.95703125 18.796875 C30.66245502 23.25799911 34.86307446 28.30776733 38 34 C38 35.32 38 36.64 38 38 C38.66 38 39.32 38 40 38 C43.59033802 47.06132928 46.50018112 56.21566684 47 66 C47.05285156 67.01835937 47.10570312 68.03671875 47.16015625 69.0859375 C47.26126784 73.068855 47.16916941 77.02165844 47 81 C46.9705127 81.91845703 46.94102539 82.83691406 46.91064453 83.78320312 C46.12289836 102.5052015 46.12289836 102.5052015 41.15234375 107.3671875 C38.01386234 109.78902224 34.64816613 111.45077877 31 113 C29.87078125 113.54140625 28.7415625 114.0828125 27.578125 114.640625 C9.28724629 121.58956145 -15.13695443 117.25855326 -32.5 109.65234375 C-46.84509387 102.88005055 -57.17388379 92.75189611 -65 79 C-65.72509766 77.80697266 -65.72509766 77.80697266 -66.46484375 76.58984375 C-69.31252522 71.77767477 -70.86777693 67.47241149 -72 62 C-72.33 61.01 -72.66 60.02 -73 59 C-73.25736763 55.4838122 -73.23143719 51.96211273 -73.25 48.4375 C-73.270625 47.48552734 -73.29125 46.53355469 -73.3125 45.55273438 C-73.39519635 30.36761767 -67.47443702 19.60262069 -57 9 C-53.11646113 5.27071384 -48.82873057 2.37184222 -44 0 C-43.28972656 -0.37511719 -42.57945312 -0.75023437 -41.84765625 -1.13671875 C-29.17264069 -6.84347931 -12.43361989 -5.67955477 0 0 Z " fill="#FFFCFD" transform="translate(191,157)"/>
<path d="M0 0 C6.1150126 3.06599937 11.97361228 6.50300893 15.25390625 12.703125 C17.34399642 19.13753872 17.04043928 25.7321083 14.0625 31.8125 C10.55106913 37.21773628 5.93981086 42.10957835 -0.5234375 43.5703125 C-6.41281859 43.84213009 -11.12875656 42.27137427 -16 39 C-16.66 38.34 -17.32 37.68 -18 37 C-18 36.01 -18 35.02 -18 34 C-20.97 33.67 -23.94 33.34 -27 33 C-21.77800561 39.63898335 -21.77800561 39.63898335 -16.30078125 46.06640625 C-9.70399638 53.53343972 -4.49648349 61.07464931 0 70 C0.39832031 70.74636719 0.79664063 71.49273437 1.20703125 72.26171875 C2.45639391 76.57602036 2.20702074 80.84867912 2.125 85.3125 C2.11597656 86.24384766 2.10695313 87.17519531 2.09765625 88.13476562 C2.07418263 90.4234436 2.04134729 92.71158672 2 95 C1.34 95 0.68 95 0 95 C-0.66 97.97 -1.32 100.94 -2 104 C-2.66 104 -3.32 104 -4 104 C-4.26425781 104.59039062 -4.52851563 105.18078125 -4.80078125 105.7890625 C-8.42385989 112.46874495 -14.90195797 115.70744723 -21.6875 118.4375 C-22.32905029 118.69644043 -22.97060059 118.95538086 -23.6315918 119.22216797 C-27.20051624 120.57262191 -30.18386959 121.29916128 -34 121 C-34.20625 121.825 -34.4125 122.65 -34.625 123.5 C-36.33907042 127.86308835 -38.6734021 131.66493748 -42 135 C-42.99 135 -43.98 135 -45 135 C-44.3993671 131.89445488 -43.42254404 129.93568949 -41.5 127.4375 C-39.76352292 125.17099358 -38.92509236 123.77527707 -38 121 C-38.73863281 121.02320313 -39.47726562 121.04640625 -40.23828125 121.0703125 C-52.33735823 121.28554386 -64.36624655 120.34577656 -73.51953125 111.58984375 C-75.7717036 109.11936714 -77.91973263 106.61628718 -80 104 C-80.77537109 103.07380859 -80.77537109 103.07380859 -81.56640625 102.12890625 C-85.47408094 96.3259561 -86.50838714 91.41737249 -86.375 84.5625 C-86.36484863 83.8111377 -86.35469727 83.05977539 -86.34423828 82.28564453 C-86.09104023 73.27061636 -83.42685206 67.40980471 -77 61 C-70.95075378 55.51787061 -63.46362952 55.46915326 -55.68359375 55.703125 C-45.40233703 56.53173106 -38.91970416 62.71788908 -32 70 C-30.10825007 72.37092669 -29.22840091 74.13373121 -28 77 C-27.70609375 77.67804688 -27.4121875 78.35609375 -27.109375 79.0546875 C-24.11757501 87.13254746 -24.7345625 95.52566213 -25 104 C-20.31345848 95.03444231 -19.76282111 86.8881436 -22.1875 77 C-24.54699453 69.84457636 -28.7304076 64.03120848 -33.1394043 57.97460938 C-43 44.3944764 -43 44.3944764 -43 39 C-43.66 39 -44.32 39 -45 39 C-46.27816802 35.16549593 -46.32056597 31.51615335 -46.5234375 27.49609375 C-46.68070312 26.67238281 -46.83796875 25.84867188 -47 25 C-47.99 24.34 -48.98 23.68 -50 23 C-50 22.01 -50 21.02 -50 20 C-48.35 20.33 -46.7 20.66 -45 21 C-45.020625 19.88625 -45.04125 18.7725 -45.0625 17.625 C-44.26689653 11.23744071 -39.62703594 7.10404286 -35 3 C-25.34416669 -3.33196642 -10.80067996 -4.33955891 0 0 Z " fill="#FF294F" transform="translate(390,130)"/>
<path d="M0 0 C1.55045499 1.21306362 3.07284573 2.46300187 4.5625 3.75 C5.29210937 4.37003906 6.02171875 4.99007813 6.7734375 5.62890625 C13.21669379 11.55718109 17.61690873 18.45574028 18.26171875 27.3359375 C18.29331103 29.26537033 18.28863116 31.19569527 18.25 33.125 C18.23710937 34.13578613 18.22421875 35.14657227 18.2109375 36.18798828 C17.93236124 44.19318668 16.44204184 50.25086555 11.5625 56.75 C10.93601562 57.59820312 10.30953125 58.44640625 9.6640625 59.3203125 C5.61820469 64.29367922 1.58177041 67.54140839 -4.4375 69.75 C-5.365625 70.10320312 -6.29375 70.45640625 -7.25 70.8203125 C-13.56722918 72.66283768 -20.88253912 73.04694067 -27.125 70.76953125 C-30.87625405 68.59246417 -30.87625405 68.59246417 -32.4375 66.75 C-32.4375 65.43 -32.4375 64.11 -32.4375 62.75 C-31.65246094 62.4096875 -30.86742187 62.069375 -30.05859375 61.71875 C-22.20423677 58.09514482 -16.11613405 54.33427098 -12.28515625 46.34765625 C-10.80853395 41.82252339 -10.7830531 37.44372135 -11.4375 32.75 C-13.08461687 29.35276346 -13.08461687 29.35276346 -16.4375 27.75 C-21.61112972 26.69397609 -26.07021116 27.14446657 -30.6875 29.75 C-39.01973522 35.87713863 -41.14494996 42.18946834 -42.67700195 52.11035156 C-42.94575927 53.98811375 -43.19380188 55.8688215 -43.4375 57.75 C-65.09045279 58.2446106 -65.09045279 58.2446106 -71.4375 55.75 C-77.03500282 48.34044528 -76.10939947 38.96576198 -74.9765625 30.171875 C-72.77509362 18.41344124 -68.12141391 8.15058304 -58.4375 0.75 C-41.15925816 -9.70543206 -17.41148042 -11.58115212 0 0 Z " fill="#FFF9FA" transform="translate(282.4375,20.25)"/>
<path d="M0 0 C4.96381529 4.6422726 9.22614562 11.89619085 9.86450195 18.78515625 C10.44749759 39.26200701 10.44749759 39.26200701 5.6875 46.875 C1.28931184 50.82209194 -4.3408061 50.31059165 -10 50.15625 C-19.3124096 49.36557371 -27.62525876 45.9171771 -34.06640625 38.98828125 C-35.61435908 37.0135745 -36.97515063 34.99687347 -38.3125 32.875 C-38.72628906 32.30523437 -39.14007813 31.73546875 -39.56640625 31.1484375 C-43.7548403 24.52283102 -43.07120477 16.3846288 -42.3125 8.875 C-41.46802887 5.7153496 -40.31925432 3.44264838 -38.3125 0.875 C-37.87679688 0.30265625 -37.44109375 -0.2696875 -36.9921875 -0.859375 C-27.4517465 -11.80742205 -10.11920436 -8.03081322 0 0 Z " fill="#FFFBFC" transform="translate(350.3125,197.125)"/>
<path d="M0 0 C4.24489355 2.48639775 8.08067361 5.90744097 10.30078125 10.34765625 C10.98710823 17.76223788 11.02079917 23.41737732 6.30078125 29.34765625 C2.60519266 33.19028417 -0.52777994 34.65887787 -5.88671875 34.78515625 C-9.35818989 34.69221923 -11.68267595 34.07436696 -14.69921875 32.34765625 C-14.69921875 31.35765625 -14.69921875 30.36765625 -14.69921875 29.34765625 C-14.15652344 29.08210938 -13.61382812 28.8165625 -13.0546875 28.54296875 C-12.33925781 28.18976563 -11.62382812 27.8365625 -10.88671875 27.47265625 C-10.17902344 27.12460938 -9.47132813 26.7765625 -8.7421875 26.41796875 C-6.48675457 25.28200765 -6.48675457 25.28200765 -3.69921875 23.34765625 C-3.28255208 19.84765625 -3.28255208 19.84765625 -3.69921875 16.34765625 C-5.56885873 14.08467188 -5.56885873 14.08467188 -8.51171875 13.91015625 C-12.79941469 14.49866354 -14.01774641 16.01393388 -16.69921875 19.34765625 C-18.49242699 22.51411099 -18.49242699 22.51411099 -19.69921875 25.34765625 C-21.13713391 25.20597488 -22.57454245 25.05914582 -24.01171875 24.91015625 C-24.81222656 24.82894531 -25.61273438 24.74773437 -26.4375 24.6640625 C-28.69921875 24.34765625 -28.69921875 24.34765625 -31.69921875 23.34765625 C-32.28515973 10.13143202 -32.28515973 10.13143202 -28.69921875 4.34765625 C-20.52154491 -4.15867115 -10.67100583 -4.74834231 0 0 Z " fill="#FFF5F7" transform="translate(391.69921875,134.65234375)"/>
<path d="M0 0 C7.06707627 4.925538 13.75472665 10.50842467 17.19140625 18.52734375 C17.63226563 19.54441406 17.63226563 19.54441406 18.08203125 20.58203125 C20.69562506 27.63873455 20.3975824 34.5598278 20.19921875 41.96484375 C19.92505526 45.36895343 19.92505526 45.36895343 21.19140625 47.52734375 C20.53140625 48.51734375 19.87140625 49.50734375 19.19140625 50.52734375 C18.53140625 50.52734375 17.87140625 50.52734375 17.19140625 50.52734375 C16.69640625 48.54734375 16.69640625 48.54734375 16.19140625 46.52734375 C15.53140625 47.18734375 14.87140625 47.84734375 14.19140625 48.52734375 C14.21759033 47.88821045 14.24377441 47.24907715 14.27075195 46.59057617 C15.31228026 29.76041036 15.31228026 29.76041036 9.19140625 14.52734375 C8.81886719 13.93308594 8.44632812 13.33882812 8.0625 12.7265625 C4.2673722 7.39751546 -2.42642797 3.72709197 -8.80859375 2.52734375 C-16.89561401 1.80104832 -24.17118161 2.68067338 -30.68359375 7.77734375 C-36.28368209 15.02451689 -36.86673691 22.66703964 -36.11914062 31.57519531 C-35.32653035 36.55767309 -32.70465294 40.50888842 -29.80859375 44.52734375 C-29.41414063 45.130625 -29.0196875 45.73390625 -28.61328125 46.35546875 C-23.6870582 53.17639298 -15.72726281 55.94360994 -7.80859375 57.52734375 C-7.80859375 57.85734375 -7.80859375 58.18734375 -7.80859375 58.52734375 C-11.27359375 58.03234375 -11.27359375 58.03234375 -14.80859375 57.52734375 C-14.80859375 58.18734375 -14.80859375 58.84734375 -14.80859375 59.52734375 C-13.32359375 60.02234375 -13.32359375 60.02234375 -11.80859375 60.52734375 C-22.88134403 58.84965431 -29.94082347 52.41457989 -36.484375 43.71484375 C-40.11447898 37.7182118 -41.31828382 33.01167494 -41.18359375 26.08984375 C-41.17344238 25.33848145 -41.16329102 24.58711914 -41.15283203 23.81298828 C-40.89963398 14.79796011 -38.23544581 8.93714846 -31.80859375 2.52734375 C-24.00638574 -4.54340726 -9.09500845 -4.84952064 0 0 Z " fill="#FF4A6A" transform="translate(344.80859375,188.47265625)"/>
<path d="M0 0 C2.61838421 2.61838421 2.35821377 3.91066969 2.4375 7.5625 C2.27557588 15.08297563 0.12579584 19.67730363 -4.984375 25.109375 C-8.79575976 28.4882622 -11.90426947 30.44942782 -17.0625 30.6875 C-22.88614035 30.26049361 -27.867742 28.132258 -32 24 C-32 23.01 -32 22.02 -32 21 C-34.97 20.67 -37.94 20.34 -41 20 C-41.33 20.66 -41.66 21.32 -42 22 C-41.67 20.02 -41.34 18.04 -41 16 C-38.03 16.33 -35.06 16.66 -32 17 C-31.938125 16.29875 -31.87625 15.5975 -31.8125 14.875 C-30.69528762 10.92178696 -28.79812617 9.00286711 -26 6 C-23.20129973 4.60064987 -21.09501208 4.74734595 -18 5 C-16.125 6.0625 -16.125 6.0625 -15 8 C-14.375 11.375 -14.375 11.375 -15 15 C-18.24518776 18.56334343 -22.1880764 20.5625524 -27 21 C-27 21.99 -27 22.98 -27 24 C-21.08295711 25.67694994 -15.26207961 26.04725908 -9.625 23.4375 C-3.97494181 18.19101739 -2.52189922 13.43706392 -2 6 C-1.67 6 -1.34 6 -1 6 C-1 7.98 -1 9.96 -1 12 C-0.34 12 0.32 12 1 12 C0.505 6.06 0.505 6.06 0 0 Z " fill="#FF4667" transform="translate(404,143)"/>
<path d="M0 0 C-0.15597656 0.99515625 -0.31195313 1.9903125 -0.47265625 3.015625 C-2.15227707 14.93165149 -2.20452721 24.00328761 5 34 C5.39445312 34.60328125 5.78890625 35.2065625 6.1953125 35.828125 C11.12153555 42.64904923 19.08133094 45.41626619 27 47 C27 47.33 27 47.66 27 48 C23.535 47.505 23.535 47.505 20 47 C20 47.66 20 48.32 20 49 C21.485 49.495 21.485 49.495 23 50 C11.92724972 48.32231056 4.86777028 41.88723614 -1.67578125 33.1875 C-5.35600155 27.10808003 -6.46821176 22.44452931 -6.3125 15.4375 C-6.31572266 14.70853516 -6.31894531 13.97957031 -6.32226562 13.22851562 C-6.2785356 8.81178309 -5.79239264 5.11046934 -4 1 C-2 0 -2 0 0 0 Z " fill="#FF4364" transform="translate(310,199)"/>
<path d="M0 0 C1.06605469 0.28101563 2.13210938 0.56203125 3.23046875 0.8515625 C7.41308581 2.12585205 11.32050832 3.73153658 15.3125 5.5 C16.02728516 5.80808594 16.74207031 6.11617187 17.47851562 6.43359375 C22.74799107 8.74799107 22.74799107 8.74799107 25 11 C27.06874034 11.6425235 27.06874034 11.6425235 29 12 C29.99 10.68 30.98 9.36 32 8 C31.67 9.98 31.34 11.96 31 14 C28.525 13.505 28.525 13.505 26 13 C26 13.66 26 14.32 26 15 C22.57721126 13.94683423 19.35429998 12.71847331 16.125 11.1875 C1.07696652 4.58529988 -11.58773171 3.29889758 -28 4 C-24.39501281 1.5966752 -21.48872908 1.56286576 -17.3125 1.375 C-13.6928125 1.189375 -13.6928125 1.189375 -10 1 C-16.93 1 -23.86 1 -31 1 C-22.58128729 -4.61247514 -9.30531067 -2.77106678 0 0 Z " fill="#FF5371" transform="translate(314,137)"/>
<path d="M0 0 C1.4783226 2.95664519 1.06032783 5.74229737 1 9 C0.34 9 -0.32 9 -1 9 C-1.35964844 10.13501953 -1.35964844 10.13501953 -1.7265625 11.29296875 C-3.19943753 14.4239577 -4.4925281 15.45948235 -7.375 17.3125 C-8.14585937 17.82425781 -8.91671875 18.33601563 -9.7109375 18.86328125 C-12 20 -12 20 -16 20 C-14.98159821 13.04092108 -13.94563829 7.24537394 -9 2 C-5.5647952 -0.29013653 -4.014669 -0.17842973 0 0 Z " fill="#FFF0F3" transform="translate(263,55)"/>
<path d="M0 0 C1.98 0.495 1.98 0.495 4 1 C5.1738006 5.59432893 5.07974137 9.98674605 5 14.6875 C4.66238567 20.00049926 4.66238567 20.00049926 6 25 C5.34 25.99 4.68 26.98 4 28 C3.34 28 2.68 28 2 28 C1.67 26.68 1.34 25.36 1 24 C0.34 24.66 -0.32 25.32 -1 26 C-0.67 17.42 -0.34 8.84 0 0 Z " fill="#FF5875" transform="translate(360,211)"/>
<path d="M0 0 C1.40958984 0.2165625 1.40958984 0.2165625 2.84765625 0.4375 C13.18435749 1.87024691 23.45073009 2.19869802 33.875 2.1875 C35.18090088 2.18814453 36.48680176 2.18878906 37.83227539 2.18945312 C45.60098008 2.14607182 53.27044379 1.78341315 61 1 C60.67 1.99 60.34 2.98 60 4 C60 3.34 60 2.68 60 2 C58.88383301 2.32049316 58.88383301 2.32049316 57.74511719 2.64746094 C49.14885175 4.89692643 41.24213803 5.41100845 32.40234375 5.28125 C30.21076855 5.2494304 28.01991081 5.24019905 25.828125 5.234375 C15.16449458 5.16449458 15.16449458 5.16449458 14 4 C11.5165743 3.75572862 9.03432707 3.61640241 6.54296875 3.4765625 C3.64556241 2.93357698 2.19926003 1.91730361 0 0 Z " fill="#FFA3B3" transform="translate(168,278)"/>
<path d="M0 0 C0 0.33 0 0.66 0 1 C-1.98 1 -3.96 1 -6 1 C-5.01 1.66 -4.02 2.32 -3 3 C-3.90878906 2.83628906 -4.81757813 2.67257813 -5.75390625 2.50390625 C-11.12880056 1.73606421 -16.52021545 1.8937851 -21.9375 1.9375 C-23.00291016 1.94201172 -24.06832031 1.94652344 -25.16601562 1.95117188 C-27.77740291 1.96288213 -30.38867124 1.97928276 -33 2 C-29.39501281 -0.4033248 -26.48872908 -0.43713424 -22.3125 -0.625 C-18.6928125 -0.810625 -18.6928125 -0.810625 -15 -1 C-21.93 -1 -28.86 -1 -36 -1 C-26.29041009 -7.47305994 -10.13300635 -4.57619642 0 0 Z " fill="#FF728A" transform="translate(319,139)"/>
<path d="M0 0 C0.33 0.66 0.66 1.32 1 2 C-1.64 2 -4.28 2 -7 2 C-7 2.66 -7 3.32 -7 4 C-5.02 4 -3.04 4 -1 4 C-1.29539188 7.54470259 -1.77626519 8.78215295 -4.375 11.3125 C-7 13 -7 13 -10 13 C-10.33 11.68 -10.66 10.36 -11 9 C-11.99 9.99 -12.98 10.98 -14 12 C-13.55396127 6.94489444 -11.35299176 4.59833262 -8 1 C-5.29120665 -0.35439668 -2.99066732 -0.06501451 0 0 Z " fill="#FF5C78" transform="translate(386,148)"/>
<path d="M0 0 C5.568849 1.96547612 11.0346159 4.69352318 14 10 C15.16858222 14.67432887 15.08250907 19.21447406 15 24 C14.34 24 13.68 24 13 24 C12.87625 23.21496094 12.7525 22.42992187 12.625 21.62109375 C11.26032734 14.6697924 9.71571482 10.59784832 4.0078125 6.26953125 C1.74954155 4.84163619 -0.42150454 3.72520185 -3 3 C-2.01 2.01 -1.02 1.02 0 0 Z " fill="#FF4162" transform="translate(390,131)"/>
<path d="M0 0 C6.27 0.33 12.54 0.66 19 1 C19 1.99 19 2.98 19 4 C19.66 4 20.32 4 21 4 C19.52410328 8.42769017 17.26930159 12.6336865 14 16 C13.01 16 12.02 16 11 16 C11.6006329 12.89445488 12.57745596 10.93568949 14.5 8.4375 C16.23647708 6.17099358 17.07490764 4.77527707 18 2 C17.20335937 2.01160156 16.40671875 2.02320313 15.5859375 2.03515625 C5.06151142 2.12478032 5.06151142 2.12478032 0 1 C0 0.67 0 0.34 0 0 Z " fill="#FF5371" transform="translate(334,249)"/>
<path d="M0 0 C1.12535156 -0.01836914 1.12535156 -0.01836914 2.2734375 -0.03710938 C6.24079172 -0.04766085 8.93088287 0.25479207 12.375 2.1875 C11.08464844 2.22488281 9.79429687 2.26226562 8.46484375 2.30078125 C6.74736851 2.36647702 5.02992185 2.4329231 3.3125 2.5 C2.04116211 2.53383789 2.04116211 2.53383789 0.74414062 2.56835938 C-5.52448355 2.83459438 -10.99313257 3.55563257 -15.625 8.1875 C-15.625 6.8675 -15.625 5.5475 -15.625 4.1875 C-16.615 3.8575 -17.605 3.5275 -18.625 3.1875 C-12.84572902 -0.14669479 -6.48540835 0.00562969 0 0 Z " fill="#FF294E" transform="translate(295.625,136.8125)"/>
<path d="M0 0 C0.33 0 0.66 0 1 0 C1.07347656 1.60681641 1.07347656 1.60681641 1.1484375 3.24609375 C1.22345294 4.64325639 1.2990013 6.0403905 1.375 7.4375 C1.42140625 8.49807617 1.42140625 8.49807617 1.46875 9.58007812 C1.57280629 11.39239188 1.77919892 13.19817988 2 15 C2.66 15.33 3.32 15.66 4 16 C5.25 18.375 5.25 18.375 6 21 C5.34 21.99 4.68 22.98 4 24 C3.34 24 2.68 24 2 24 C1.67 22.68 1.34 21.36 1 20 C0.34 20.66 -0.32 21.32 -1 22 C-0.67 14.74 -0.34 7.48 0 0 Z " fill="#FF7890" transform="translate(360,215)"/>
<path d="M0 0 C0.33 0 0.66 0 1 0 C2.43319058 6.32746252 2.48416029 12.7262983 2.75 19.1875 C2.81832031 20.48365234 2.88664063 21.77980469 2.95703125 23.11523438 C3.00730469 24.34951172 3.05757812 25.58378906 3.109375 26.85546875 C3.18623535 28.55159302 3.18623535 28.55159302 3.26464844 30.28198242 C3.17731445 31.17892822 3.08998047 32.07587402 3 33 C2.01 33.66 1.02 34.32 0 35 C0 23.45 0 11.9 0 0 Z " fill="#FF9BAD" transform="translate(245,214)"/>
<path d="M0 0 C-0.3358407 3.10652645 -0.59049279 4.60414303 -2.875 6.8125 C-5 8 -5 8 -8 8 C-7.63487253 5.2980567 -7.30130763 3.41609148 -5.6875 1.1875 C-4 0 -4 0 0 0 Z " fill="#FFE1E6" transform="translate(385,152)"/>
<path d="M0 0 C0.66 0.33 1.32 0.66 2 1 C-2.16048113 5.84979161 -6.31778162 10.64444802 -11 15 C-11.66 15 -12.32 15 -13 15 C-11.38989473 10.92623969 -8.46177729 8.23492931 -5.375 5.25 C-4.859375 4.74339844 -4.34375 4.23679687 -3.8125 3.71484375 C-2.54616661 2.47196098 -1.2736856 1.23534724 0 0 Z " fill="#FF4566" transform="translate(199,20)"/>
<path d="M0 0 C0.76441406 0.19078125 1.52882813 0.3815625 2.31640625 0.578125 C3.07824219 0.75859375 3.84007812 0.9390625 4.625 1.125 C6.86202405 1.82285846 8.81812763 2.72028046 10.87890625 3.828125 C8.56890625 3.498125 6.25890625 3.168125 3.87890625 2.828125 C3.87890625 3.488125 3.87890625 4.148125 3.87890625 4.828125 C4.86890625 5.158125 5.85890625 5.488125 6.87890625 5.828125 C2.490013 5.16314117 -1.10224225 3.64054823 -5.12109375 1.828125 C-2.12109375 -0.171875 -2.12109375 -0.171875 0 0 Z " fill="#FF4F6E" transform="translate(326.12109375,243.171875)"/>
<path d="M0 0 C0.66 0.33 1.32 0.66 2 1 C-1.72346836 5.42094803 -5.29521038 9.57833482 -10 13 C-10 10 -10 10 -7.8125 7.51953125 C-6.884375 6.62621094 -5.95625 5.73289063 -5 4.8125 C-4.071875 3.91144531 -3.14375 3.01039063 -2.1875 2.08203125 C-1.1046875 1.05142578 -1.1046875 1.05142578 0 0 Z " fill="#FFD0D8" transform="translate(138,162)"/>
<path d="M0 0 C4 2 4 2 4.75 3.625 C5.1155134 7.09737727 5.05818928 10.50864298 5 14 C4.34 14 3.68 14 3 14 C2.01 9.38 1.02 4.76 0 0 Z " fill="#FF264C" transform="translate(400,141)"/>
<path d="M0 0 C2.97 0 5.94 0 9 0 C9 2.31 9 4.62 9 7 C8.01 7 7.02 7 6 7 C6 5.35 6 3.7 6 2 C4.02 2 2.04 2 0 2 C0 1.34 0 0.68 0 0 Z " fill="#FF2F53" transform="translate(379,150)"/>
<path d="M0 0 C0.66 0.33 1.32 0.66 2 1 C1.67 2.32 1.34 3.64 1 5 C-1.93593133 5 -4.76556416 4.77500573 -7.6875 4.5 C-8.68136719 4.4071875 -9.67523438 4.314375 -10.69921875 4.21875 C-11.45847656 4.1465625 -12.21773438 4.074375 -13 4 C-13 3.67 -13 3.34 -13 3 C-11.96939453 2.92652344 -11.96939453 2.92652344 -10.91796875 2.8515625 C-9.56638672 2.73941406 -9.56638672 2.73941406 -8.1875 2.625 C-7.29417969 2.55539063 -6.40085937 2.48578125 -5.48046875 2.4140625 C-2.75601501 2.13354964 -2.75601501 2.13354964 0 0 Z " fill="#FF637E" transform="translate(394,166)"/>
<path d="M0 0 C-1.59092052 4.13639336 -4.60474918 7.23213248 -8 10 C-8.66 10 -9.32 10 -10 10 C-8.50006099 6.10015857 -4.53875449 0 0 0 Z " fill="#FFDBE1" transform="translate(226,21)"/>
<path d="M0 0 C0.66 0.33 1.32 0.66 2 1 C0.90344712 2.31886772 -0.20253423 3.62990057 -1.3125 4.9375 C-1.92738281 5.66839844 -2.54226562 6.39929688 -3.17578125 7.15234375 C-5 9 -5 9 -8 10 C-6.34908222 5.70761377 -3.26245434 3.1206085 0 0 Z " fill="#FF5674" transform="translate(31,66)"/>
<path d="M0 0 C0.75 1.75 0.75 1.75 1 4 C-0.9375 6.25 -0.9375 6.25 -3 8 C-3.99 7.67 -4.98 7.34 -6 7 C-4.60667426 3.63279613 -3.0210714 2.0140476 0 0 Z " fill="#FF3659" transform="translate(401,161)"/>
<path d="M0 0 C-5.75 4 -5.75 4 -8 4 C-8.12375 4.969375 -8.2475 5.93875 -8.375 6.9375 C-8.58125 7.948125 -8.7875 8.95875 -9 10 C-9.99 10.495 -9.99 10.495 -11 11 C-9.0178489 2.7062625 -9.0178489 2.7062625 -4.9375 -0.125 C-2 -1 -2 -1 0 0 Z " fill="#FFACBB" transform="translate(246,275)"/>
<path d="M0 0 C3.91402949 1.26941497 5.79072873 2.51167694 8 6 C6.68 6.33 5.36 6.66 4 7 C0 2.25 0 2.25 0 0 Z " fill="#FF3559" transform="translate(311,233)"/>
<path d="M0 0 C0.66 0.33 1.32 0.66 2 1 C2 4.63 2 8.26 2 12 C1.01 12 0.02 12 -1 12 C-0.67 8.04 -0.34 4.08 0 0 Z " fill="#FF254B" transform="translate(362,219)"/>
<path d="M0 0 C0.33 0.66 0.66 1.32 1 2 C-1.64 2 -4.28 2 -7 2 C-7.66 3.32 -8.32 4.64 -9 6 C-9.66 6 -10.32 6 -11 6 C-8.60159776 0.46522561 -5.82500047 -0.25888891 0 0 Z " fill="#FF6580" transform="translate(386,148)"/>
<path d="M0 0 C0.66 0.33 1.32 0.66 2 1 C0.88200014 2.33920838 -0.24461897 3.67122556 -1.375 5 C-2.00148438 5.7425 -2.62796875 6.485 -3.2734375 7.25 C-4.12808594 8.11625 -4.12808594 8.11625 -5 9 C-5.66 9 -6.32 9 -7 9 C-5.44499019 5.18315774 -2.96404505 2.80804268 0 0 Z " fill="#FFD5DD" transform="translate(318,192)"/>
<path d="M0 0 C0.66 0.33 1.32 0.66 2 1 C0.88200014 2.33920838 -0.24461897 3.67122556 -1.375 5 C-2.00148438 5.7425 -2.62796875 6.485 -3.2734375 7.25 C-4.12808594 8.11625 -4.12808594 8.11625 -5 9 C-5.66 9 -6.32 9 -7 9 C-5.44499019 5.18315774 -2.96404505 2.80804268 0 0 Z " fill="#FF4C6B" transform="translate(355,133)"/>
<path d="M0 0 C0.99 1.32 1.98 2.64 3 4 C2.01 5.98 1.02 7.96 0 10 C-0.33 9.34 -0.66 8.68 -1 8 C-0.67 7.01 -0.34 6.02 0 5 C-0.99 5.33 -1.98 5.66 -3 6 C-1.125 1.125 -1.125 1.125 0 0 Z " fill="#FF617D" transform="translate(310,194)"/>
<path d="M0 0 C5.94 0.99 5.94 0.99 12 2 C11.67 2.66 11.34 3.32 11 4 C9.02 4 7.04 4 5 4 C5 3.34 5 2.68 5 2 C3.35 1.67 1.7 1.34 0 1 C0 0.67 0 0.34 0 0 Z " fill="#FF3256" transform="translate(311,139)"/>
<path d="M0 0 C0.33 0 0.66 0 1 0 C1.33 2.64 1.66 5.28 2 8 C1.01 8.66 0.02 9.32 -1 10 C-1.125 2.25 -1.125 2.25 0 0 Z " fill="#FFAFBD" transform="translate(246,239)"/>
<path d="M0 0 C1.04449911 3.13349732 0.93423645 3.98968256 0 7 C-0.99 7 -1.98 7 -3 7 C-2.38722388 4.03824877 -1.74627478 2.61941217 0 0 Z " fill="#FF5573" transform="translate(348,258)"/>
<path d="M0 0 C0.66 0.33 1.32 0.66 2 1 C0.38405168 3.04119788 -1.2856382 5.04072937 -3 7 C-3.66 7 -4.32 7 -5 7 C-3.70700306 4.11562221 -2.34058637 2.12780579 0 0 Z " fill="#FF5775" transform="translate(250,50)"/>
<path d="M0 0 C0.33 0.99 0.66 1.98 1 3 C-0.9375 5.6875 -0.9375 5.6875 -3 8 C-3.33 7.01 -3.66 6.02 -4 5 C-2.0625 2.3125 -2.0625 2.3125 0 0 Z " fill="#FF2D52" transform="translate(352,255)"/>
<path d="M0 0 C2 2 2 2 2 6 C1.34 6 0.68 6 0 6 C-0.33 6.99 -0.66 7.98 -1 9 C-1.33 7.35 -1.66 5.7 -2 4 C-1.34 4 -0.68 4 0 4 C0 2.68 0 1.36 0 0 Z " fill="#FF5C79" transform="translate(360,205)"/>
<path d="M0 0 C0.66 0.33 1.32 0.66 2 1 C1.67 1.66 1.34 2.32 1 3 C1.66 3.33 2.32 3.66 3 4 C1.68 4.99 0.36 5.98 -1 7 C-1 5.68 -1 4.36 -1 3 C-1.99 2.67 -2.98 2.34 -4 2 C-2.125 0.9375 -2.125 0.9375 0 0 Z " fill="#FF5371" transform="translate(281,138)"/>
</svg>
